<?xml version="1.0" encoding="UTF-8" standalone="no"?><!-- Generator: Gravit.io --><svg xmlns="http://www.w3.org/2000/svg" xmlns:xlink="http://www.w3.org/1999/xlink" style="isolation:isolate" viewBox="0 0 1840 400" width="1840pt" height="400pt"><defs><clipPath id="_clipPath_mJrYFuPeKa2po2F2ioKZcIlO9aWzlfUd"><rect width="1840" height="400"/></clipPath></defs><g clip-path="url(#_clipPath_mJrYFuPeKa2po2F2ioKZcIlO9aWzlfUd)"><rect width="1840" height="400" style="fill:rgb(0,0,0)" fill-opacity="0"/><g><g><g><g><path d=" M 10.5 13 L 185.339 387 L 253.738 262.342 L 235.916 262.342 L 167.622 119.279 C 136.362 53.785 76.06 13 10.5 13 L 10.5 13 Z " fill="rgb(227,175,91)"/><path d=" M 190.957 13 L 365.797 387 L 434.196 262.342 L 416.378 262.342 L 348.083 119.279 C 316.819 53.785 256.518 13 190.957 13 L 190.957 13 Z " fill="rgb(227,175,91)"/><path d=" M 368.553 13.832 L 474.273 13.832 L 419.603 129.925 L 368.553 13.832 Z " fill="rgb(227,175,91)"/></g></g></g><g><path d=" M 569.994 356.395 L 544.342 356.395 L 544.342 356.395 Q 527.815 356.395 519.293 352.352 L 519.293 352.352 L 519.293 352.352 Q 510.771 348.309 507.758 339.256 L 507.758 339.256 L 507.758 339.256 Q 504.745 330.203 504.745 315.438 L 504.745 315.438 L 504.745 122.078 L 481.676 122.078 L 481.676 93.953 L 504.745 93.953 L 504.745 45.438 L 542.276 45.438 L 542.276 93.953 L 569.477 93.953 L 569.477 122.078 L 542.276 122.078 L 542.276 311.219 L 542.276 311.219 Q 542.276 317.723 543.998 320.975 L 543.998 320.975 L 543.998 320.975 Q 545.719 324.227 551.659 325.281 L 551.659 325.281 L 551.659 325.281 Q 557.598 326.336 569.994 326.336 L 569.994 326.336 L 569.994 356.395 Z  M 651.425 354.813 L 618.715 354.813 L 587.726 91.141 L 619.059 91.141 L 632.66 230.535 L 636.964 282.215 L 638.341 282.215 L 644.711 230.359 L 664.165 91.141 L 674.15 91.141 L 690.505 91.141 L 697.047 91.141 L 716.845 226.844 L 723.904 282.215 L 725.109 282.215 L 729.413 226.668 L 742.497 91.141 L 773.314 91.141 L 741.981 354.813 L 707.893 354.813 L 681.725 150.203 L 651.425 354.813 Z  M 846.309 357.098 L 846.309 357.098 L 846.309 357.098 Q 822.379 357.098 812.049 338.377 L 812.049 338.377 L 812.049 338.377 Q 801.72 319.656 801.548 286.785 L 801.548 286.785 L 801.548 263.055 L 801.548 263.055 Q 801.548 244.773 807.401 232.908 L 807.401 232.908 L 807.401 232.908 Q 813.254 221.043 824.014 213.221 L 824.014 213.221 L 824.014 213.221 Q 834.774 205.398 849.408 199.158 L 849.408 199.158 L 849.408 199.158 Q 864.041 192.918 881.429 185.887 L 881.429 185.887 L 881.429 164.969 L 881.429 164.969 Q 881.429 148.797 880.396 138.865 L 880.396 138.865 L 880.396 138.865 Q 879.363 128.934 875.318 124.275 L 875.318 124.275 L 875.318 124.275 Q 871.272 119.617 862.32 119.617 L 862.32 119.617 L 862.32 119.617 Q 853.54 119.617 849.15 124.275 L 849.15 124.275 L 849.15 124.275 Q 844.76 128.934 843.382 138.953 L 843.382 138.953 L 843.382 138.953 Q 842.005 148.973 842.005 164.793 L 842.005 164.793 L 842.005 174.461 L 804.819 174.461 L 804.819 166.902 L 804.819 166.902 Q 804.819 149.676 807.057 135.262 L 807.057 135.262 L 807.057 135.262 Q 809.295 120.848 815.406 110.301 L 815.406 110.301 L 815.406 110.301 Q 821.518 99.754 833.053 93.865 L 833.053 93.865 L 833.053 93.865 Q 844.587 87.977 863.181 87.977 L 863.181 87.977 L 863.181 87.977 Q 880.569 87.977 891.587 93.514 L 891.587 93.514 L 891.587 93.514 Q 902.605 99.051 908.631 109.773 L 908.631 109.773 L 908.631 109.773 Q 914.656 120.496 917.066 136.404 L 917.066 136.404 L 917.066 136.404 Q 919.477 152.313 919.477 173.23 L 919.477 173.23 L 919.477 354.813 L 881.774 354.813 L 881.774 331.258 L 881.774 331.258 Q 880.052 337.059 875.49 343.035 L 875.49 343.035 L 875.49 343.035 Q 870.928 349.012 863.697 353.055 L 863.697 353.055 L 863.697 353.055 Q 856.466 357.098 846.309 357.098 Z  M 857.499 326.688 L 857.499 326.688 L 857.499 326.688 Q 866.624 326.688 873.08 320.535 L 873.08 320.535 L 873.08 320.535 Q 879.536 314.383 881.429 308.23 L 881.429 308.23 L 881.429 209.969 L 881.429 209.969 Q 868.862 215.594 860.684 220.34 L 860.684 220.34 L 860.684 220.34 Q 852.507 225.086 847.858 230.271 L 847.858 230.271 L 847.858 230.271 Q 843.21 235.457 841.316 242.664 L 841.316 242.664 L 841.316 242.664 Q 839.423 249.871 839.423 260.77 L 839.423 260.77 L 839.423 286.258 L 839.423 286.258 Q 839.423 307.703 843.124 317.195 L 843.124 317.195 L 843.124 317.195 Q 846.825 326.688 857.499 326.688 Z  M 1002.285 354.813 L 964.927 354.813 L 964.927 42.273 L 1002.285 42.273 L 1002.285 354.813 Z  M 1090.43 354.813 L 1052.9 354.813 L 1052.9 42.273 L 1090.43 42.273 L 1090.43 215.418 L 1139.668 91.141 L 1177.543 91.141 L 1124.174 221.219 L 1180.47 354.813 L 1142.078 354.813 L 1090.43 227.195 L 1090.43 354.813 Z  M 1263.622 357.977 L 1263.622 357.977 L 1263.622 357.977 Q 1244.857 357.977 1233.322 351.473 L 1233.322 351.473 L 1233.322 351.473 Q 1221.788 344.969 1215.676 332.84 L 1215.676 332.84 L 1215.676 332.84 Q 1209.564 320.711 1207.412 303.748 L 1207.412 303.748 L 1207.412 303.748 Q 1205.26 286.785 1205.26 266.219 L 1205.26 266.219 L 1205.26 172 L 1205.26 172 Q 1205.26 153.367 1208.101 137.986 L 1208.101 137.986 L 1208.101 137.986 Q 1210.942 122.605 1217.57 111.443 L 1217.57 111.443 L 1217.57 111.443 Q 1224.198 100.281 1235.819 94.129 L 1235.819 94.129 L 1235.819 94.129 Q 1247.439 87.977 1265 87.977 L 1265 87.977 L 1265 87.977 Q 1282.904 87.977 1294.008 94.129 L 1294.008 94.129 L 1294.008 94.129 Q 1305.113 100.281 1310.966 111.619 L 1310.966 111.619 L 1310.966 111.619 Q 1316.82 122.957 1318.972 138.689 L 1318.972 138.689 L 1318.972 138.689 Q 1321.124 154.422 1321.124 173.406 L 1321.124 173.406 L 1321.124 224.559 L 1242.963 224.559 L 1242.963 276.941 L 1242.963 276.941 Q 1242.963 300.848 1246.234 313.592 L 1246.234 313.592 L 1246.234 313.592 Q 1249.505 326.336 1263.967 326.336 L 1263.967 326.336 L 1263.967 326.336 Q 1273.608 326.336 1277.739 320.271 L 1277.739 320.271 L 1277.739 320.271 Q 1281.871 314.207 1282.818 303.221 L 1282.818 303.221 L 1282.818 303.221 Q 1283.765 292.234 1283.765 277.469 L 1283.765 277.469 L 1283.765 255.848 L 1320.435 255.848 L 1320.435 267.625 L 1320.435 267.625 Q 1320.435 288.367 1318.627 304.979 L 1318.627 304.979 L 1318.627 304.979 Q 1316.82 321.59 1311.224 333.455 L 1311.224 333.455 L 1311.224 333.455 Q 1305.629 345.32 1294.181 351.648 L 1294.181 351.648 L 1294.181 351.648 Q 1282.732 357.977 1263.622 357.977 Z  M 1242.791 167.254 L 1242.791 199.598 L 1283.765 199.598 L 1283.765 166.023 L 1283.765 166.023 Q 1283.765 150.73 1282.646 140.271 L 1282.646 140.271 L 1282.646 140.271 Q 1281.527 129.813 1277.653 124.451 L 1277.653 124.451 L 1277.653 124.451 Q 1273.78 119.09 1265 119.09 L 1265 119.09 L 1265 119.09 Q 1255.014 119.09 1250.28 125.242 L 1250.28 125.242 L 1250.28 125.242 Q 1245.546 131.395 1244.168 142.205 L 1244.168 142.205 L 1244.168 142.205 Q 1242.791 153.016 1242.791 167.254 L 1242.791 167.254 Z  M 1400.833 354.813 L 1363.13 354.813 L 1363.13 91.141 L 1400.833 91.141 L 1400.833 120.496 L 1400.833 120.496 Q 1405.309 105.203 1416.414 96.59 L 1416.414 96.59 L 1416.414 96.59 Q 1427.518 87.977 1444.734 87.977 L 1444.734 87.977 L 1444.734 87.977 Q 1445.078 87.977 1445.164 92.898 L 1445.164 92.898 L 1445.164 92.898 Q 1445.25 97.82 1445.25 104.148 L 1445.25 104.148 L 1445.25 104.148 Q 1445.25 110.477 1445.25 115.398 L 1445.25 115.398 L 1445.25 115.398 Q 1445.25 120.32 1445.25 120.32 L 1445.25 120.32 L 1445.25 120.32 Q 1436.987 120.32 1428.551 122.342 L 1428.551 122.342 L 1428.551 122.342 Q 1420.115 124.363 1412.798 129.021 L 1412.798 129.021 L 1412.798 129.021 Q 1405.481 133.68 1400.833 141.59 L 1400.833 141.59 L 1400.833 354.813 Z  M 1530.985 357.977 L 1530.985 357.977 L 1530.985 357.977 Q 1512.048 357.977 1500.255 351.561 L 1500.255 351.561 L 1500.255 351.561 Q 1488.462 345.145 1482.264 333.016 L 1482.264 333.016 L 1482.264 333.016 Q 1476.067 320.887 1473.829 303.924 L 1473.829 303.924 L 1473.829 303.924 Q 1471.59 286.961 1471.59 266.043 L 1471.59 266.043 L 1471.59 178.504 L 1471.59 178.504 Q 1471.59 151.434 1476.153 131.131 L 1476.153 131.131 L 1476.153 131.131 Q 1480.715 110.828 1493.627 99.402 L 1493.627 99.402 L 1493.627 99.402 Q 1506.539 87.977 1531.846 87.977 L 1531.846 87.977 L 1531.846 87.977 Q 1548.89 87.977 1559.736 93.689 L 1559.736 93.689 L 1559.736 93.689 Q 1570.582 99.402 1576.435 110.037 L 1576.435 110.037 L 1576.435 110.037 Q 1582.289 120.672 1584.527 135.613 L 1584.527 135.613 L 1584.527 135.613 Q 1586.765 150.555 1586.765 168.836 L 1586.765 168.836 L 1586.765 189.402 L 1550.095 189.402 L 1550.095 164.617 L 1550.095 164.617 Q 1550.095 150.203 1549.148 140.359 L 1549.148 140.359 L 1549.148 140.359 Q 1548.201 130.516 1544.242 125.506 L 1544.242 125.506 L 1544.242 125.506 Q 1540.282 120.496 1531.33 120.496 L 1531.33 120.496 L 1531.33 120.496 Q 1522.033 120.496 1517.299 125.857 L 1517.299 125.857 L 1517.299 125.857 Q 1512.564 131.219 1510.929 141.414 L 1510.929 141.414 L 1510.929 141.414 Q 1509.293 151.609 1509.293 165.496 L 1509.293 165.496 L 1509.293 279.051 L 1509.293 279.051 Q 1509.293 294.52 1510.671 304.891 L 1510.671 304.891 L 1510.671 304.891 Q 1512.048 315.262 1516.61 320.359 L 1516.61 320.359 L 1516.61 320.359 Q 1521.172 325.457 1530.297 325.457 L 1530.297 325.457 L 1530.297 325.457 Q 1539.421 325.457 1543.553 320.008 L 1543.553 320.008 L 1543.553 320.008 Q 1547.685 314.559 1548.89 304.275 L 1548.89 304.275 L 1548.89 304.275 Q 1550.095 293.992 1550.095 279.754 L 1550.095 279.754 L 1550.095 253.035 L 1586.765 253.035 L 1586.765 272.02 L 1586.765 272.02 Q 1586.765 291.355 1584.613 307.088 L 1584.613 307.088 L 1584.613 307.088 Q 1582.461 322.82 1576.607 334.158 L 1576.607 334.158 L 1576.607 334.158 Q 1570.754 345.496 1559.65 351.736 L 1559.65 351.736 L 1559.65 351.736 Q 1548.546 357.977 1530.985 357.977 Z  M 1684.035 357.977 L 1684.035 357.977 L 1684.035 357.977 Q 1665.614 357.977 1653.993 351.648 L 1653.993 351.648 L 1653.993 351.648 Q 1642.372 345.32 1636.002 333.631 L 1636.002 333.631 L 1636.002 333.631 Q 1629.632 321.941 1627.222 305.418 L 1627.222 305.418 L 1627.222 305.418 Q 1624.812 288.895 1624.812 268.328 L 1624.812 268.328 L 1624.812 173.934 L 1624.812 173.934 Q 1624.812 149.148 1629.805 129.725 L 1629.805 129.725 L 1629.805 129.725 Q 1634.797 110.301 1647.623 99.139 L 1647.623 99.139 L 1647.623 99.139 Q 1660.449 87.977 1684.035 87.977 L 1684.035 87.977 L 1684.035 87.977 Q 1701.595 87.977 1713.044 94.305 L 1713.044 94.305 L 1713.044 94.305 Q 1724.492 100.633 1730.948 112.322 L 1730.948 112.322 L 1730.948 112.322 Q 1737.404 124.012 1739.986 139.656 L 1739.986 139.656 L 1739.986 139.656 Q 1742.569 155.301 1742.569 173.934 L 1742.569 173.934 L 1742.569 268.328 L 1742.569 268.328 Q 1742.569 288.543 1740.245 304.979 L 1740.245 304.979 L 1740.245 304.979 Q 1737.92 321.414 1731.723 333.279 L 1731.723 333.279 L 1731.723 333.279 Q 1725.525 345.145 1713.99 351.561 L 1713.99 351.561 L 1713.99 351.561 Q 1702.456 357.977 1684.035 357.977 Z  M 1684.035 326.336 L 1684.035 326.336 L 1684.035 326.336 Q 1692.987 326.336 1697.377 320.359 L 1697.377 320.359 L 1697.377 320.359 Q 1701.767 314.383 1703.317 303.572 L 1703.317 303.572 L 1703.317 303.572 Q 1704.866 292.762 1704.866 278.523 L 1704.866 278.523 L 1704.866 166.551 L 1704.866 166.551 Q 1704.866 152.313 1703.317 141.854 L 1703.317 141.854 L 1703.317 141.854 Q 1701.767 131.395 1697.291 125.506 L 1697.291 125.506 L 1697.291 125.506 Q 1692.815 119.617 1684.035 119.617 L 1684.035 119.617 L 1684.035 119.617 Q 1674.738 119.617 1670.09 125.506 L 1670.09 125.506 L 1670.09 125.506 Q 1665.442 131.395 1663.978 141.854 L 1663.978 141.854 L 1663.978 141.854 Q 1662.515 152.313 1662.515 166.551 L 1662.515 166.551 L 1662.515 278.523 L 1662.515 278.523 Q 1662.515 292.762 1663.978 303.572 L 1663.978 303.572 L 1663.978 303.572 Q 1665.442 314.383 1670.09 320.359 L 1670.09 320.359 L 1670.09 320.359 Q 1674.738 326.336 1684.035 326.336 Z  M 1824 354.813 L 1791.978 354.813 L 1791.978 318.25 L 1824 318.25 L 1824 354.813 Z " fill="rgb(19,19,19)"/></g></g></g></svg>